<svg width="36" height="36" viewBox="0 0 36 36" fill="none" xmlns="http://www.w3.org/2000/svg">
<path d="M6.71667 30.9291C6.71667 25.3753 11.2189 20.8731 16.7726 20.8731C17.2604 20.8731 17.74 20.9079 18.2092 20.975M22.5189 10.8171C22.5189 13.9907 19.9462 16.5634 16.7726 16.5634C13.5991 16.5634 11.0264 13.9907 11.0264 10.8171C11.0264 7.64355 13.5991 5.07086 16.7726 5.07086C19.9462 5.07086 22.5189 7.64355 22.5189 10.8171ZM19.0565 30.9291L21.9655 30.3473C22.2192 30.2965 22.3461 30.2711 22.4643 30.2247C22.5693 30.1836 22.669 30.1302 22.7615 30.0657C22.8657 29.993 22.9572 29.9016 23.1401 29.7186L29.1125 23.7462C29.9059 22.9528 29.9059 21.6665 29.1125 20.8731C28.3192 20.0797 27.0328 20.0797 26.2393 20.8731L20.267 26.8455C20.0841 27.0285 19.9926 27.1199 19.9199 27.2242C19.8554 27.3165 19.8021 27.4164 19.7608 27.5214C19.7144 27.6396 19.6892 27.7665 19.6383 28.02L19.0565 30.9291Z" stroke="white" stroke-width="2.87313" stroke-linecap="round" stroke-linejoin="round"/>
</svg>
